HIERARCHY
ROOT Hips
{
	OFFSET 0.000000 0.000000 0.000000
	CHANNELS 6 Xposition Yposition Zposition Yrotation Zrotation Xrotation
	JOINT LeftUpLeg
	{
		OFFSET 9.633789 -3.273254 0.000000
		CHANNELS 3 Yrotation Zrotation Xrotation
		JOINT LeftLeg
		{
			OFFSET 0.000000 -41.730000 -1.729965
			CHANNELS 3 Yrotation Zrotation Xrotation
			JOINT LeftFoot
			{
				OFFSET 0.012605 -39.189999 -0.847687
				CHANNELS 3 Yrotation Zrotation Xrotation
				JOINT LeftToeBase
				{
					OFFSET -0.183287 -12.193086 8.282264
					CHANNELS 3 Yrotation Zrotation Xrotation
					End Site
					{
						OFFSET 0.000000 0.000000 10.000000
					}
				}
			}
		}
	}
	JOINT RightUpLeg
	{
		OFFSET -9.633789 -3.273254 0.000000
		CHANNELS 3 Yrotation Zrotation Xrotation
		JOINT RightLeg
		{
			OFFSET 0.000000 -41.730000 -1.729965
			CHANNELS 3 Yrotation Zrotation Xrotation
			JOINT RightFoot
			{
				OFFSET 0.012605 -39.189999 -0.847687
				CHANNELS 3 Yrotation Zrotation Xrotation
				JOINT RightToeBase
				{
					OFFSET -0.183287 -12.193086 8.282264
					CHANNELS 3 Yrotation Zrotation Xrotation
					End Site
					{
						OFFSET 0.000000 0.000000 10.000000
					}
				}
			}
		}
	}
	JOINT Spine
	{
		OFFSET 0.000000 9.226319 1.577133
		CHANNELS 3 Yrotation Zrotation Xrotation
		JOINT Spine1
		{
			OFFSET 0.000000 16.254028 -0.165605
			CHANNELS 3 Yrotation Zrotation Xrotation
			JOINT Spine2
			{
				OFFSET 0.000000 13.639648 -1.292305
				CHANNELS 3 Yrotation Zrotation Xrotation
				JOINT LeftShoulder
				{
					OFFSET 6.144226 10.187012 -3.793244
					CHANNELS 3 Yrotation Zrotation Xrotation
					JOINT LeftArm
					{
						OFFSET 12.319092 -1.112976 -1.793457
						CHANNELS 3 Yrotation Zrotation Xrotation
						JOINT LeftForeArm
						{
							OFFSET 27.687012 0.000000 0.000000
							CHANNELS 3 Yrotation Zrotation Xrotation
							JOINT LeftHand
							{
								OFFSET 27.873779 0.000000 0.000000
								CHANNELS 3 Yrotation Zrotation Xrotation
								JOINT LeftHandIndex1
								{
									OFFSET 10.394535 0.614761 2.705492
									CHANNELS 3 Yrotation Zrotation Xrotation
									JOINT LeftHandIndex2
									{
										OFFSET 5.549290 0.000000 0.000000
										CHANNELS 3 Yrotation Zrotation Xrotation
										JOINT LeftHandIndex3
										{
											OFFSET 3.391119 0.000000 0.000000
											CHANNELS 3 Yrotation Zrotation Xrotation
											End Site
											{
												OFFSET 2.000000 0.000000 0.000000
											}
										}
									}
								}
								JOINT LeftHandThumb1
								{
									OFFSET 2.378513 -1.002899 2.620936
									CHANNELS 3 Yrotation Zrotation Xrotation
									JOINT LeftHandThumb2
									{
										OFFSET 3.362369 -1.002900 2.839772
										CHANNELS 3 Yrotation Zrotation Xrotation
										JOINT LeftHandThumb3
										{
											OFFSET 4.501795 -1.344499 2.178268
											CHANNELS 3 Yrotation Zrotation Xrotation
											End Site
											{
												OFFSET 2.000000 0.000000 0.000000
											}
										}
									}
								}
								JOINT LeftHandMiddle1
								{
									OFFSET 10.463907 0.614760 0.429787
									CHANNELS 3 Yrotation Zrotation Xrotation
									JOINT LeftHandMiddle2
									{
										OFFSET 5.792091 0.000000 0.000000
										CHANNELS 3 Yrotation Zrotation Xrotation
										JOINT LeftHandMiddle3
										{
											OFFSET 3.713173 0.000000 0.000000
											CHANNELS 3 Yrotation Zrotation Xrotation
											End Site
											{
												OFFSET 2.000000 0.000000 0.000000
											}
										}
									}
								}
								JOINT LeftHandPinky1
								{
									OFFSET 10.012992 -0.078348 -3.967141
									CHANNELS 3 Yrotation Zrotation Xrotation
									JOINT LeftHandPinky2
									{
										OFFSET 3.676256 0.000000 0.000000
										CHANNELS 3 Yrotation Zrotation Xrotation
										JOINT LeftHandPinky3
										{
											OFFSET 2.811343 0.000000 0.000000
											CHANNELS 3 Yrotation Zrotation Xrotation
											End Site
											{
												OFFSET 2.000000 0.000000 0.000000
											}
										}
									}
								}
								JOINT LeftHandRing1
								{
									OFFSET 10.325164 0.321132 -1.875542
									CHANNELS 3 Yrotation Zrotation Xrotation
									JOINT LeftHandRing2
									{
										OFFSET 5.445232 0.000000 0.000000
										CHANNELS 3 Yrotation Zrotation Xrotation
										JOINT LeftHandRing3
										{
											OFFSET 3.713173 0.000000 0.000000
											CHANNELS 3 Yrotation Zrotation Xrotation
											End Site
											{
												OFFSET 2.000000 0.000000 0.000000
											}
										}
									}
								}
							}
						}
					}
				}
				JOINT Neck
				{
					OFFSET 0.000000 13.877442 -4.354187
					CHANNELS 3 Yrotation Zrotation Xrotation
					JOINT Neck1
					{
						OFFSET 0.000000 4.340027 0.926895
						CHANNELS 3 Yrotation Zrotation Xrotation
						JOINT Head
						{
							OFFSET 0.000000 4.026611 0.858520
							CHANNELS 3 Yrotation Zrotation Xrotation
							End Site
							{
								OFFSET 0.000000 20.000000 0.000000
							}
						}
					}
				}
				JOINT RightShoulder
				{
					OFFSET -6.140198 10.187012 -3.793244
					CHANNELS 3 Yrotation Zrotation Xrotation
					JOINT RightArm
					{
						OFFSET -12.323120 -1.112976 -1.793457
						CHANNELS 3 Yrotation Zrotation Xrotation
						JOINT RightForeArm
						{
							OFFSET -27.687012 0.000000 0.000000
							CHANNELS 3 Yrotation Zrotation Xrotation
							JOINT RightHand
							{
								OFFSET -27.873779 0.000000 0.000000
								CHANNELS 3 Yrotation Zrotation Xrotation
								JOINT RightHandIndex1
								{
									OFFSET -10.466505 0.489581 2.711963
									CHANNELS 3 Yrotation Zrotation Xrotation
									JOINT RightHandIndex2
									{
										OFFSET -5.376767 0.000000 0.000000
										CHANNELS 3 Yrotation Zrotation Xrotation
										JOINT RightHandIndex3
										{
											OFFSET -3.385469 0.000000 0.000000
											CHANNELS 3 Yrotation Zrotation Xrotation
											End Site
											{
												OFFSET -2.000000 0.000000 0.000000
											}
										}
									}
								}
								JOINT RightHandThumb1
								{
									OFFSET -2.517766 -0.936667 2.513669
									CHANNELS 3 Yrotation Zrotation Xrotation
									JOINT RightHandThumb2
									{
										OFFSET -3.263787 -1.086965 2.966880
										CHANNELS 3 Yrotation Zrotation Xrotation
										JOINT RightHandThumb3
										{
											OFFSET -4.416528 -1.370263 2.135023
											CHANNELS 3 Yrotation Zrotation Xrotation
											End Site
											{
												OFFSET -2.000000 0.000000 0.000000
											}
										}
									}
								}
								JOINT RightHandMiddle1
								{
									OFFSET -10.759602 0.489580 0.427799
									CHANNELS 3 Yrotation Zrotation Xrotation
									JOINT RightHandMiddle2
									{
										OFFSET -5.616768 0.000000 0.000000
										CHANNELS 3 Yrotation Zrotation Xrotation
										JOINT RightHandMiddle3
										{
											OFFSET -3.736354 0.000000 0.000000
											CHANNELS 3 Yrotation Zrotation Xrotation
											End Site
											{
												OFFSET -2.000000 0.000000 0.000000
											}
										}
									}
								}
								JOINT RightHandPinky1
								{
									OFFSET -9.971459 -0.119144 -3.954005
									CHANNELS 3 Yrotation Zrotation Xrotation
									JOINT RightHandPinky2
									{
										OFFSET -3.652758 0.000000 0.000000
										CHANNELS 3 Yrotation Zrotation Xrotation
										JOINT RightHandPinky3
										{
											OFFSET -2.782034 0.000000 0.000000
											CHANNELS 3 Yrotation Zrotation Xrotation
											End Site
											{
												OFFSET -2.000000 0.000000 0.000000
											}
										}
									}
								}
								JOINT RightHandRing1
								{
									OFFSET -10.470213 0.387872 -1.936280
									CHANNELS 3 Yrotation Zrotation Xrotation
									JOINT RightHandRing2
									{
										OFFSET -5.401276 0.000000 0.000000
										CHANNELS 3 Yrotation Zrotation Xrotation
										JOINT RightHandRing3
										{
											OFFSET -3.391596 0.000000 0.000000
											CHANNELS 3 Yrotation Zrotation Xrotation
											End Site
											{
												OFFSET -2.000000 0.000000 0.000000
											}
										}
									}
								}
							}
						}
					}
				}
			}
		}
	}
}
MOTION
Frames: 9
Frame Time: 0.010000000
0.0 96.379402 0.0 0.00 0.00 0.00 0.00 0.00 0.00 0.00 0.00 0.00 0.00 0.00 0.00 0.00 0.00 0.00 0.00 0.00 0.00 0.00 0.00 0.00 0.00 0.00 0.00 0.00 0.00 0.00 0.00 0.00 0.00 0.00 0.00 0.00 0.00 0.00 0.00 0.00 0.00 0.00 0.00 0.00 0.00 0.00 0.00 0.00 0.00 0.00 0.00 0.00 0.00 0.00 0.00 0.00 0.00 0.00 0.00 0.00 0.00 0.00 0.00 0.00 0.00 0.00 0.00 0.00 0.00 0.00 0.00 0.00 0.00 0.00 0.00 0.00 0.00 0.00 0.00 0.00 0.00 0.00 0.00 0.00 0.00 0.00 0.00 0.00 0.00 0.00 0.00 0.00 0.00 0.00 0.00 0.00 0.00 0.00 0.00 0.00 0.00 0.00 0.00 0.00 0.00 0.00 0.00 0.00 0.00 0.00 0.00 0.00 0.00 0.00 0.00 0.00 0.00 0.00 0.00 0.00 0.00 0.00 0.00 0.00 0.00 0.00 0.00 0.00 0.00 0.00 0.00 0.00 0.00 0.00 0.00 0.00 0.00 0.00 0.00 0.00 0.00 0.00 0.00 0.00 0.00 0.00 0.00 0.00 0.00 0.00 0.00 0.00 0.00 0.00 0.00 0.00 0.00 0.00 0.00 0.00 0.00 0.00
0.0 96.379402 0.0 0.00 0.00 0.00 0.00 0.00 0.00 0.00 0.00 0.00 0.00 0.00 0.00 0.00 0.00 0.00 0.00 0.00 0.00 0.00 0.00 0.00 0.00 0.00 0.00 0.00 0.00 0.00 0.00 0.00 0.00 0.00 0.00 0.00 0.00 0.00 0.00 0.00 0.00 0.00 0.00 0.00 0.00 0.00 0.00 0.00 0.00 0.00 0.00 0.00 0.00 0.00 0.00 0.00 0.00 0.00 0.00 0.00 0.00 0.00 0.00 0.00 0.00 0.00 0.00 0.00 0.00 0.00 0.00 0.00 0.00 0.00 0.00 0.00 0.00 0.00 0.00 0.00 0.00 0.00 0.00 0.00 0.00 0.00 0.00 0.00 0.00 0.00 0.00 0.00 0.00 0.00 0.00 0.00 0.00 0.00 0.00 0.00 0.00 0.00 0.00 0.00 0.00 0.00 0.00 0.00 0.00 0.00 0.00 0.00 0.00 0.00 0.00 0.00 0.00 0.00 0.00 0.00 0.00 0.00 0.00 0.00 0.00 0.00 0.00 0.00 0.00 0.00 0.00 0.00 0.00 0.00 0.00 0.00 0.00 0.00 0.00 0.00 0.00 0.00 0.00 0.00 0.00 0.00 0.00 0.00 0.00 0.00 0.00 0.00 0.00 0.00 0.00 0.00 0.00 0.00 0.00 0.00 0.00 0.00
0.0 96.379402 0.0 17.74 -5.96 -6.15 -25.41 -4.63 9.66 14.29 1.44 -4.14 3.92 5.13 1.64 0.00 0.00 0.00 -11.78 3.06 12.88 -16.82 7.01 -6.14 9.58 -3.46 2.08 0.00 0.00 0.00 0.00 0.00 0.00 0.00 0.00 0.00 -20.13 7.20 7.21 0.00 0.00 0.00 0.00 0.00 0.00 0.00 0.00 0.00 0.00 0.00 0.00 0.00 0.00 0.00 0.00 0.00 0.00 0.00 0.00 0.00 0.00 0.00 0.00 0.00 0.00 0.00 0.00 0.00 0.00 0.00 0.00 0.00 0.00 0.00 0.00 0.00 0.00 0.00 0.00 0.00 0.00 0.00 0.00 0.00 0.00 0.00 0.00 0.00 0.00 0.00 0.00 0.00 0.00 0.00 0.00 0.00 0.00 0.00 0.00 0.00 0.00 0.00 0.00 0.00 0.00 0.00 0.00 0.00 0.00 0.00 0.00 0.00 0.00 0.00 0.00 0.00 0.00 0.00 0.00 0.00 0.00 0.00 0.00 0.00 0.00 0.00 0.00 0.00 0.00 0.00 0.00 0.00 0.00 0.00 0.00 0.00 0.00 0.00 0.00 0.00 0.00 0.00 0.00 0.00 0.00 0.00 0.00 0.00 0.00 0.00 0.00 0.00 0.00 0.00 0.00 0.00 0.00 0.00 0.00 0.00 0.00 0.00
0.0 96.379402 0.0 17.74 -5.98 -6.19 -25.40 -4.63 9.71 14.29 1.44 -4.15 3.93 5.14 1.64 0.00 0.00 0.00 -11.77 3.07 12.92 -16.83 7.02 -6.14 9.58 -3.46 2.08 0.00 0.00 0.00 0.00 0.00 0.00 0.00 0.00 0.00 -20.13 7.19 7.25 0.00 0.00 0.00 0.00 0.00 0.00 0.00 0.00 0.00 0.00 0.00 0.00 0.00 0.00 0.00 0.00 0.00 0.00 0.00 0.00 0.00 0.00 0.00 0.00 0.00 0.00 0.00 0.00 0.00 0.00 0.00 0.00 0.00 0.00 0.00 0.00 0.00 0.00 0.00 0.00 0.00 0.00 0.00 0.00 0.00 0.00 0.00 0.00 0.00 0.00 0.00 0.00 0.00 0.00 0.00 0.00 0.00 0.00 0.00 0.00 0.00 0.00 0.00 0.00 0.00 0.00 0.00 0.00 0.00 0.00 0.00 0.00 0.00 0.00 0.00 0.00 0.00 0.00 0.00 0.00 0.00 0.00 0.00 0.00 0.00 0.00 0.00 0.00 0.00 0.00 0.00 0.00 0.00 0.00 0.00 0.00 0.00 0.00 0.00 0.00 0.00 0.00 0.00 0.00 0.00 0.00 0.00 0.00 0.00 0.00 0.00 0.00 0.00 0.00 0.00 0.00 0.00 0.00 0.00 0.00 0.00 0.00 0.00
0.0 96.379402 0.0 17.73 -6.00 -6.22 -25.39 -4.63 9.76 14.28 1.43 -4.17 3.92 5.14 1.65 0.00 0.00 0.00 -11.76 3.08 12.96 -16.84 7.02 -6.13 9.58 -3.46 2.08 0.00 0.00 0.00 0.00 0.00 0.00 0.00 0.00 0.00 -20.13 7.19 7.29 0.00 0.00 0.00 0.00 0.00 0.00 0.00 0.00 0.00 0.00 0.00 0.00 0.00 0.00 0.00 0.00 0.00 0.00 0.00 0.00 0.00 0.00 0.00 0.00 0.00 0.00 0.00 0.00 0.00 0.00 0.00 0.00 0.00 0.00 0.00 0.00 0.00 0.00 0.00 0.00 0.00 0.00 0.00 0.00 0.00 0.00 0.00 0.00 0.00 0.00 0.00 0.00 0.00 0.00 0.00 0.00 0.00 0.00 0.00 0.00 0.00 0.00 0.00 0.00 0.00 0.00 0.00 0.00 0.00 0.00 0.00 0.00 0.00 0.00 0.00 0.00 0.00 0.00 0.00 0.00 0.00 0.00 0.00 0.00 0.00 0.00 0.00 0.00 0.00 0.00 0.00 0.00 0.00 0.00 0.00 0.00 0.00 0.00 0.00 0.00 0.00 0.00 0.00 0.00 0.00 0.00 0.00 0.00 0.00 0.00 0.00 0.00 0.00 0.00 0.00 0.00 0.00 0.00 0.00 0.00 0.00 0.00 0.00
0.0 96.379402 0.0 17.73 -6.01 -6.24 -25.38 -4.63 9.78 14.29 1.43 -4.17 3.92 5.14 1.65 0.00 0.00 0.00 -11.76 3.08 12.98 -16.84 7.02 -6.13 9.58 -3.46 2.08 0.00 0.00 0.00 0.00 0.00 0.00 0.00 0.00 0.00 -20.13 7.18 7.32 0.00 0.00 0.00 0.00 0.00 0.00 0.00 0.00 0.00 0.00 0.00 0.00 0.00 0.00 0.00 0.00 0.00 0.00 0.00 0.00 0.00 0.00 0.00 0.00 0.00 0.00 0.00 0.00 0.00 0.00 0.00 0.00 0.00 0.00 0.00 0.00 0.00 0.00 0.00 0.00 0.00 0.00 0.00 0.00 0.00 0.00 0.00 0.00 0.00 0.00 0.00 0.00 0.00 0.00 0.00 0.00 0.00 0.00 0.00 0.00 0.00 0.00 0.00 0.00 0.00 0.00 0.00 0.00 0.00 0.00 0.00 0.00 0.00 0.00 0.00 0.00 0.00 0.00 0.00 0.00 0.00 0.00 0.00 0.00 0.00 0.00 0.00 0.00 0.00 0.00 0.00 0.00 0.00 0.00 0.00 0.00 0.00 0.00 0.00 0.00 0.00 0.00 0.00 0.00 0.00 0.00 0.00 0.00 0.00 0.00 0.00 0.00 0.00 0.00 0.00 0.00 0.00 0.00 0.00 0.00 0.00 0.00 0.00
0.0 96.379402 0.0 17.72 -6.02 -6.27 -25.38 -4.63 9.82 14.29 1.43 -4.18 3.92 5.14 1.65 0.00 0.00 0.00 -11.75 3.09 13.01 -16.85 7.02 -6.12 9.58 -3.45 2.07 0.00 0.00 0.00 0.00 0.00 0.00 0.00 0.00 0.00 -20.13 7.19 7.35 0.00 0.00 0.00 0.00 0.00 0.00 0.00 0.00 0.00 0.00 0.00 0.00 0.00 0.00 0.00 0.00 0.00 0.00 0.00 0.00 0.00 0.00 0.00 0.00 0.00 0.00 0.00 0.00 0.00 0.00 0.00 0.00 0.00 0.00 0.00 0.00 0.00 0.00 0.00 0.00 0.00 0.00 0.00 0.00 0.00 0.00 0.00 0.00 0.00 0.00 0.00 0.00 0.00 0.00 0.00 0.00 0.00 0.00 0.00 0.00 0.00 0.00 0.00 0.00 0.00 0.00 0.00 0.00 0.00 0.00 0.00 0.00 0.00 0.00 0.00 0.00 0.00 0.00 0.00 0.00 0.00 0.00 0.00 0.00 0.00 0.00 0.00 0.00 0.00 0.00 0.00 0.00 0.00 0.00 0.00 0.00 0.00 0.00 0.00 0.00 0.00 0.00 0.00 0.00 0.00 0.00 0.00 0.00 0.00 0.00 0.00 0.00 0.00 0.00 0.00 0.00 0.00 0.00 0.00 0.00 0.00 0.00 0.00
0.0 96.379402 0.0 17.72 -6.03 -6.30 -25.38 -4.63 9.85 14.29 1.43 -4.19 3.92 5.14 1.66 0.00 0.00 0.00 -11.74 3.10 13.03 -16.86 7.02 -6.12 9.58 -3.45 2.08 0.00 0.00 0.00 0.00 0.00 0.00 0.00 0.00 0.00 -20.12 7.15 7.39 0.00 0.00 0.00 0.00 0.00 0.00 0.00 0.00 0.00 0.00 0.00 0.00 0.00 0.00 0.00 0.00 0.00 0.00 0.00 0.00 0.00 0.00 0.00 0.00 0.00 0.00 0.00 0.00 0.00 0.00 0.00 0.00 0.00 0.00 0.00 0.00 0.00 0.00 0.00 0.00 0.00 0.00 0.00 0.00 0.00 0.00 0.00 0.00 0.00 0.00 0.00 0.00 0.00 0.00 0.00 0.00 0.00 0.00 0.00 0.00 0.00 0.00 0.00 0.00 0.00 0.00 0.00 0.00 0.00 0.00 0.00 0.00 0.00 0.00 0.00 0.00 0.00 0.00 0.00 0.00 0.00 0.00 0.00 0.00 0.00 0.00 0.00 0.00 0.00 0.00 0.00 0.00 0.00 0.00 0.00 0.00 0.00 0.00 0.00 0.00 0.00 0.00 0.00 0.00 0.00 0.00 0.00 0.00 0.00 0.00 0.00 0.00 0.00 0.00 0.00 0.00 0.00 0.00 0.00 0.00 0.00 0.00 0.00
0.0 96.379402 0.0 17.72 -6.04 -6.32 -25.38 -4.64 9.87 14.29 1.42 -4.20 3.92 5.14 1.65 0.00 0.00 0.00 -11.73 3.10 13.04 -16.87 7.02 -6.11 9.58 -3.45 2.07 0.00 0.00 0.00 0.00 0.00 0.00 0.00 0.00 0.00 -20.13 7.15 7.41 0.00 0.00 0.00 0.00 0.00 0.00 0.00 0.00 0.00 0.00 0.00 0.00 0.00 0.00 0.00 0.00 0.00 0.00 0.00 0.00 0.00 0.00 0.00 0.00 0.00 0.00 0.00 0.00 0.00 0.00 0.00 0.00 0.00 0.00 0.00 0.00 0.00 0.00 0.00 0.00 0.00 0.00 0.00 0.00 0.00 0.00 0.00 0.00 0.00 0.00 0.00 0.00 0.00 0.00 0.00 0.00 0.00 0.00 0.00 0.00 0.00 0.00 0.00 0.00 0.00 0.00 0.00 0.00 0.00 0.00 0.00 0.00 0.00 0.00 0.00 0.00 0.00 0.00 0.00 0.00 0.00 0.00 0.00 0.00 0.00 0.00 0.00 0.00 0.00 0.00 0.00 0.00 0.00 0.00 0.00 0.00 0.00 0.00 0.00 0.00 0.00 0.00 0.00 0.00 0.00 0.00 0.00 0.00 0.00 0.00 0.00 0.00 0.00 0.00 0.00 0.00 0.00 0.00 0.00 0.00 0.00 0.00 0.00
